<svg width="247" height="48" viewBox="0 0 247 48" fill="none" xmlns="http://www.w3.org/2000/svg">
<path d="M31.1198 41.3134L31.0202 25.4246L23.4518 38.1755H18.2735L10.7052 25.9725V41.3134H0V6.44775H9.65957L21.0121 25.0262L32.0658 6.44775H41.7254L41.8249 41.3134H31.1198Z" fill="#222222"/>
<path d="M68.0251 28.6622V41.3134H56.2742V28.5127L43.1293 6.44775H55.5274L62.6476 18.5013L69.8176 6.44775H81.17L68.0251 28.6622Z" fill="#222222"/>
<path d="M99.0526 6.44775C102.272 6.44775 105.077 6.97904 107.467 8.04161C109.857 9.10419 111.7 10.6316 112.994 12.624C114.289 14.6163 114.936 16.9407 114.936 19.5971C114.936 22.2535 114.289 24.5779 112.994 26.5702C111.7 28.5626 109.857 30.09 107.467 31.1526C105.077 32.2151 102.272 32.7464 99.0526 32.7464H94.0237V41.3134H82.2728V6.44775H99.0526ZM98.3057 23.6814C99.8991 23.6814 101.094 23.3327 101.891 22.6354C102.687 21.9049 103.086 20.8921 103.086 19.5971C103.086 18.3021 102.687 17.3059 101.891 16.6086C101.094 15.8781 99.8991 15.5128 98.3057 15.5128H94.0237V23.6814H98.3057Z" fill="#222222"/>
<path d="M160.923 6.44775H172.674V41.3134H160.923V6.44775Z" fill="#222222"/>
<path d="M212.152 6.44775V41.3134H202.493L189.248 25.4745V41.3134H177.796V6.44775H187.455L200.7 22.2867V6.44775H212.152Z" fill="#222222"/>
<path d="M225.042 15.5626H214.835V6.44775H247V15.5626H236.793V41.3134H225.042V15.5626Z" fill="#222222"/>
<g clip-path="url(#clip0)">
<path d="M158.29 19.9993C158.291 20.9781 158.218 21.9557 158.074 22.9243C156.389 18.2325 152.982 14.3307 148.521 11.9864C148.26 11.8489 147.996 11.717 147.728 11.5908C146.629 11.0741 145.486 10.6565 144.311 10.3431C143.01 9.99607 141.676 9.7792 140.33 9.6958C139.899 9.66829 139.464 9.65453 139.026 9.65453C138.898 9.65453 138.771 9.65453 138.643 9.65453C138.543 9.65453 138.443 9.65453 138.341 9.65453C137.711 9.65532 137.082 9.70946 136.462 9.81636H136.455C134.561 10.1437 132.788 10.9556 131.314 12.1705C129.84 13.3853 128.717 14.9604 128.057 16.7377C128.012 16.3169 127.981 15.8924 127.964 15.4641C127.953 15.1971 127.947 14.9274 127.947 14.655C127.947 14.5862 127.947 14.5174 127.947 14.4486C127.947 14.2771 127.951 14.1064 127.959 13.9364C127.972 13.574 127.995 13.2144 128.027 12.8579C128.461 8.10501 130.624 3.66616 134.119 0.357632C136.22 -0.0366058 138.371 -0.105402 140.493 0.153732C140.932 0.206325 141.367 0.274292 141.797 0.354396C151.19 2.11749 158.29 10.242 158.29 19.9993Z" fill="url(#paint0_linear)"/>
<path d="M157.405 25.8557C156.715 28.0737 155.637 30.1561 154.219 32.0092L153.016 33.1929L152.045 34.1501L150.172 35.9925L137.97 48L125.782 36.0063C126.789 36.1556 127.806 36.2306 128.825 36.2304C132.568 36.2363 136.238 35.2131 139.422 33.2763C139.638 33.1452 139.852 33.0103 140.063 32.8717C142.443 31.3002 144.456 29.2504 145.972 26.8575C146.318 26.3116 146.637 25.7484 146.929 25.168C147.202 24.6731 147.434 24.1577 147.624 23.6266C148.29 21.7675 148.425 19.7641 148.013 17.835C147.601 15.9059 146.658 14.1252 145.288 12.6872C145.672 12.8344 146.049 12.9927 146.421 13.1621C146.816 13.3409 147.204 13.5335 147.584 13.7366C147.708 13.803 147.83 13.8704 147.952 13.9389C148.281 14.125 148.606 14.32 148.928 14.5239C153.062 17.1597 156.076 21.1889 157.405 25.8557Z" fill="url(#paint1_linear)"/>
<path d="M140.949 29.704C140.623 29.9796 140.289 30.245 139.947 30.5002C139.632 30.7348 139.311 30.96 138.981 31.1758C138.652 31.3915 138.309 31.6035 137.952 31.8117C137.661 31.98 137.365 32.1405 137.064 32.2932C134.196 33.7571 131.011 34.519 127.78 34.5142C126.475 34.5149 125.172 34.3914 123.891 34.1453L121.698 31.9889C120.568 30.5075 119.653 28.8781 118.98 27.1479C118.809 26.7126 118.655 26.27 118.517 25.8201C117.935 23.933 117.64 21.9714 117.642 19.9993C117.642 11.2971 123.29 3.89759 131.176 1.14655C127.808 4.77473 125.932 9.50625 125.914 14.4203C125.914 14.4559 125.914 14.4915 125.914 14.5271C125.914 14.7693 125.918 15.0104 125.927 15.2505C126.016 17.7462 126.584 20.2028 127.601 22.4906C127.865 23.0839 128.157 23.6611 128.477 24.2221C129.618 26.3914 131.474 28.1152 133.74 29.1115C136.007 30.1078 138.55 30.3175 140.953 29.7064L140.949 29.704Z" fill="url(#paint2_linear)"/>
</g>
<defs>
<linearGradient id="paint0_linear" x1="158.29" y1="22.8377" x2="134.55" y2="-0.203207" gradientUnits="userSpaceOnUse">
<stop stop-color="#EEA849"/>
<stop offset="1" stop-color="#F46B45"/>
</linearGradient>
<linearGradient id="paint1_linear" x1="155.355" y1="21.4944" x2="133.636" y2="43.2867" gradientUnits="userSpaceOnUse">
<stop stop-color="#F46B45"/>
<stop offset="1" stop-color="#EEA849"/>
</linearGradient>
<linearGradient id="paint2_linear" x1="130.627" y1="1.11951" x2="129.406" y2="34.4813" gradientUnits="userSpaceOnUse">
<stop stop-color="#EEA849"/>
<stop offset="1" stop-color="#F46B45"/>
</linearGradient>
<clipPath id="clip0">
<rect width="40.6486" height="48" fill="white" transform="translate(117.642)"/>
</clipPath>
</defs>
</svg>
